<?xml version="1.0" encoding="utf-8"?>
<svg viewBox="0 0 400 400" xmlns="http://www.w3.org/2000/svg" style="background-color: rgb(126, 126, 153);">
  <g transform="matrix(1, 0, 0, 1, 40, 260)">
    <rect x="0" y="0" width="100" height="100" style="stroke: rgb(0, 0, 0); fill: rgb(245, 245, 245);"></rect>
    <text style="fill: rgb(0, 0, 0); font-family: Arial, sans-serif; font-size: 12px;"><tspan x="15" y="20">Mesa: 1</tspan></text>
    <text style="fill: rgb(0, 0, 0); font-family: Arial, sans-serif; font-size: 12px;"><tspan x="15" y="35">Personas: 10</tspan></text>
  </g>
    <g transform="matrix(1, 0, 0, 1, 260, 260)">
    <rect x="0" y="0" width="100" height="100" style="stroke: rgb(0, 0, 0); fill: rgb(245, 245, 245);"></rect>
    <text style="fill: rgb(0, 0, 0); font-family: Arial, sans-serif; font-size: 12px;"><tspan x="15" y="20">Mesa: 2</tspan></text>
    <text style="fill: rgb(0, 0, 0); font-family: Arial, sans-serif; font-size: 12px;"><tspan x="15" y="35">Personas: 10</tspan></text>
  </g>
  <g transform="matrix(1, 0, 0, 1, 40, 130)">
    <rect x="0" y="0" width="100" height="100" style="stroke: rgb(0, 0, 0); fill: rgb(245, 245, 245);"></rect>
    <text style="fill: rgb(0, 0, 0); font-family: Arial, sans-serif; font-size: 12px;"><tspan x="15" y="20">Mesa: 3</tspan></text>
    <text style="fill: rgb(0, 0, 0); font-family: Arial, sans-serif; font-size: 12px;"><tspan x="15" y="35">Personas: 10</tspan></text>
  </g>
  <g transform="matrix(1, 0, 0, 1, 260, 130)">
    <rect x="0" y="0" width="100" height="100" style="stroke: rgb(0, 0, 0); fill: rgb(245, 245, 245);"></rect>
    <text style="fill: rgb(0, 0, 0); font-family: Arial, sans-serif; font-size: 12px;"><tspan x="15" y="20">Mesa: 4</tspan></text>
    <text style="fill: rgb(0, 0, 0); font-family: Arial, sans-serif; font-size: 12px;"><tspan x="15" y="35">Personas: 10</tspan></text>
  </g>
    <g transform="matrix(1, 0, 0, 1, 40, 40)">
    <rect x="0" y="0" width="50" height="50" style="stroke: rgb(0, 0, 0); fill: rgb(245, 245, 245);"></rect>
    <text style="fill: rgb(0, 0, 0); font-family: Arial, sans-serif; font-size: 8px;"><tspan x="1" y="20">Mesa: 5</tspan></text>
    <text style="fill: rgb(0, 0, 0); font-family: Arial, sans-serif; font-size: 8px;"><tspan x="1" y="30">Personas: 4</tspan></text>
  </g>
  <g transform="matrix(1, 0, 0, 1, 100, 40)">
    <rect x="0" y="0" width="50" height="50" style="stroke: rgb(0, 0, 0); fill: rgb(245, 245, 245);"></rect>
    <text style="fill: rgb(0, 0, 0); font-family: Arial, sans-serif; font-size: 8px;"><tspan x="1" y="20">Mesa: 6</tspan></text>
    <text style="fill: rgb(0, 0, 0); font-family: Arial, sans-serif; font-size: 8px;"><tspan x="1" y="30">Personas: 4</tspan></text>
  </g>
    <g transform="matrix(1, 0, 0, 1, 250, 40)">
    <rect x="0" y="0" width="50" height="50" style="stroke: rgb(0, 0, 0); fill: rgb(245, 245, 245);"></rect>
    <text style="fill: rgb(0, 0, 0); font-family: Arial, sans-serif; font-size: 8px;"><tspan x="1" y="20">Mesa: 7</tspan></text>
    <text style="fill: rgb(0, 0, 0); font-family: Arial, sans-serif; font-size: 8px;"><tspan x="1" y="30">Personas: 4</tspan></text>
  </g>
  <g transform="matrix(1, 0, 0, 1, 310, 40)">
    <rect x="0" y="0" width="50" height="50" style="stroke: rgb(0, 0, 0); fill: rgb(245, 245, 245);"></rect>
    <text style="fill: rgb(0, 0, 0); font-family: Arial, sans-serif; font-size: 8px;"><tspan x="1" y="20">Mesa: 8</tspan></text>
    <text style="fill: rgb(0, 0, 0); font-family: Arial, sans-serif; font-size: 8px;"><tspan x="1" y="30">Personas: 4</tspan></text>
  </g> 
</svg>